<svg width="12" height="15" viewBox="0 0 12 15" fill="none" xmlns="http://www.w3.org/2000/svg">
<path d="M2.00033 14.6665C1.63366 14.6665 1.31977 14.5359 1.05866 14.2748C0.797548 14.0137 0.666992 13.6998 0.666992 13.3332V6.6665C0.666992 6.29984 0.797548 5.98595 1.05866 5.72484C1.31977 5.46373 1.63366 5.33317 2.00033 5.33317H2.66699V3.99984C2.66699 3.07762 2.99199 2.2915 3.64199 1.6415C4.29199 0.991504 5.0781 0.666504 6.00033 0.666504C6.92255 0.666504 7.70866 0.991504 8.35866 1.6415C9.00866 2.2915 9.33366 3.07762 9.33366 3.99984V5.33317H10.0003C10.367 5.33317 10.6809 5.46373 10.942 5.72484C11.2031 5.98595 11.3337 6.29984 11.3337 6.6665V13.3332C11.3337 13.6998 11.2031 14.0137 10.942 14.2748C10.6809 14.5359 10.367 14.6665 10.0003 14.6665H2.00033ZM2.00033 13.3332H10.0003V6.6665H2.00033V13.3332ZM6.00033 11.3332C6.36699 11.3332 6.68088 11.2026 6.94199 10.9415C7.2031 10.6804 7.33366 10.3665 7.33366 9.99984C7.33366 9.63317 7.2031 9.31928 6.94199 9.05817C6.68088 8.79706 6.36699 8.6665 6.00033 8.6665C5.63366 8.6665 5.31977 8.79706 5.05866 9.05817C4.79755 9.31928 4.66699 9.63317 4.66699 9.99984C4.66699 10.3665 4.79755 10.6804 5.05866 10.9415C5.31977 11.2026 5.63366 11.3332 6.00033 11.3332ZM4.00033 5.33317H8.00033V3.99984C8.00033 3.44428 7.80588 2.97206 7.41699 2.58317C7.0281 2.19428 6.55588 1.99984 6.00033 1.99984C5.44477 1.99984 4.97255 2.19428 4.58366 2.58317C4.19477 2.97206 4.00033 3.44428 4.00033 3.99984V5.33317Z" fill="#757575"/>
</svg>
